<mxfile host="65bd71144e">
    <diagram id="lv5FOK_YidtGYrog6MKY" name="第 1 页">
        <mxGraphModel dx="1068" dy="527" grid="1" gridSize="10" guides="1" tooltips="1" connect="1" arrows="1" fold="1" page="1" pageScale="1" pageWidth="827" pageHeight="1169" math="0" shadow="0">
            <root>
                <mxCell id="0"/>
                <mxCell id="1" parent="0"/>
                <mxCell id="2" value="计时器组件主流程图" style="swimlane;childLayout=stackLayout;resizeParent=1;resizeParentMax=0;startSize=20;" vertex="1" parent="1">
                    <mxGeometry x="120" y="170" width="880" height="600" as="geometry"/>
                </mxCell>
                <mxCell id="3" value="wap" style="swimlane;startSize=20;" vertex="1" parent="2">
                    <mxGeometry y="20" width="270" height="580" as="geometry"/>
                </mxCell>
                <mxCell id="4" style="edgeStyle=none;html=1;exitX=0.5;exitY=1;exitDx=0;exitDy=0;entryX=0.5;entryY=0;entryDx=0;entryDy=0;" edge="1" parent="3" source="5" target="7">
                    <mxGeometry relative="1" as="geometry"/>
                </mxCell>
                <mxCell id="5" value="开始" style="rounded=1;whiteSpace=wrap;html=1;" vertex="1" parent="3">
                    <mxGeometry x="40" y="50" width="70" height="30" as="geometry"/>
                </mxCell>
                <mxCell id="6" value="" style="edgeStyle=none;html=1;fontSize=10;" edge="1" parent="3" source="7">
                    <mxGeometry relative="1" as="geometry">
                        <mxPoint x="75" y="170" as="targetPoint"/>
                    </mxGeometry>
                </mxCell>
                <mxCell id="7" value="&lt;span style=&quot;font-size: 10px&quot;&gt;开播后点击计时器icon&lt;/span&gt;" style="rounded=0;whiteSpace=wrap;html=1;" vertex="1" parent="3">
                    <mxGeometry x="40" y="110" width="70" height="30" as="geometry"/>
                </mxCell>
                <mxCell id="18" value="&lt;font style=&quot;font-size: 10px&quot;&gt;提示失败&lt;/font&gt;" style="rounded=0;whiteSpace=wrap;html=1;" vertex="1" parent="3">
                    <mxGeometry x="40" y="250" width="70" height="30" as="geometry"/>
                </mxCell>
                <mxCell id="118" value="" style="edgeStyle=none;html=1;fontSize=10;" edge="1" parent="3" source="20" target="117">
                    <mxGeometry relative="1" as="geometry"/>
                </mxCell>
                <mxCell id="20" value="&lt;span style=&quot;font-size: 10px&quot;&gt;打开倒计时面板&lt;/span&gt;" style="rounded=0;whiteSpace=wrap;html=1;" vertex="1" parent="3">
                    <mxGeometry x="40" y="310" width="70" height="30" as="geometry"/>
                </mxCell>
                <mxCell id="21" value="结束" style="rounded=1;whiteSpace=wrap;html=1;" vertex="1" parent="3">
                    <mxGeometry x="40" y="430" width="70" height="30" as="geometry"/>
                </mxCell>
                <mxCell id="42" value="&lt;span style=&quot;font-size: 10px&quot;&gt;设定计时器功能开始计时&lt;/span&gt;" style="rounded=0;whiteSpace=wrap;html=1;" vertex="1" parent="3">
                    <mxGeometry x="40" y="170" width="70" height="30" as="geometry"/>
                </mxCell>
                <mxCell id="119" value="" style="edgeStyle=none;html=1;fontSize=10;" edge="1" parent="3" source="117" target="21">
                    <mxGeometry relative="1" as="geometry"/>
                </mxCell>
                <mxCell id="117" value="&lt;span style=&quot;font-size: 10px&quot;&gt;暂停/继续/重置/关闭&lt;/span&gt;" style="rounded=0;whiteSpace=wrap;html=1;" vertex="1" parent="3">
                    <mxGeometry x="40" y="370" width="70" height="30" as="geometry"/>
                </mxCell>
                <mxCell id="27" value="后端" style="swimlane;startSize=20;" vertex="1" parent="2">
                    <mxGeometry x="270" y="20" width="140" height="580" as="geometry"/>
                </mxCell>
                <mxCell id="29" value="code&lt;br&gt;!==&lt;br&gt;200" style="text;html=1;align=center;verticalAlign=middle;resizable=0;points=[];autosize=1;strokeColor=none;fillColor=none;fontSize=10;" vertex="1" parent="27">
                    <mxGeometry x="60" y="220" width="40" height="40" as="geometry"/>
                </mxCell>
                <mxCell id="43" value="接口调用:" style="rhombus;whiteSpace=wrap;html=1;fontSize=10;" vertex="1" parent="27">
                    <mxGeometry x="27.5" y="165" width="80" height="40" as="geometry"/>
                </mxCell>
                <mxCell id="111" value="成功" style="text;html=1;align=center;verticalAlign=middle;resizable=0;points=[];autosize=1;strokeColor=none;fillColor=none;fontSize=10;" vertex="1" parent="27">
                    <mxGeometry x="100" y="165" width="40" height="20" as="geometry"/>
                </mxCell>
                <mxCell id="120" value="接口调用:" style="rhombus;whiteSpace=wrap;html=1;fontSize=10;" vertex="1" parent="27">
                    <mxGeometry x="27.5" y="365" width="80" height="40" as="geometry"/>
                </mxCell>
                <mxCell id="124" value="code&lt;br&gt;!==&lt;br&gt;200" style="text;html=1;align=center;verticalAlign=middle;resizable=0;points=[];autosize=1;strokeColor=none;fillColor=none;fontSize=10;" vertex="1" parent="27">
                    <mxGeometry x="60" y="325" width="40" height="40" as="geometry"/>
                </mxCell>
                <mxCell id="169" value="初始化接口获取计时器数据" style="rhombus;whiteSpace=wrap;html=1;fontSize=10;" vertex="1" parent="27">
                    <mxGeometry x="30" y="90" width="80" height="40" as="geometry"/>
                </mxCell>
                <mxCell id="32" value="pass" style="swimlane;startSize=20;" vertex="1" parent="2">
                    <mxGeometry x="410" y="20" width="120" height="580" as="geometry"/>
                </mxCell>
                <mxCell id="33" value="&lt;font style=&quot;font-size: 10px&quot;&gt;计时器开始消息&lt;/font&gt;" style="rounded=0;whiteSpace=wrap;html=1;" vertex="1" parent="32">
                    <mxGeometry x="25" y="170" width="70" height="30" as="geometry"/>
                </mxCell>
                <mxCell id="159" value="&lt;font style=&quot;font-size: 10px&quot;&gt;对应消息&lt;/font&gt;" style="rounded=0;whiteSpace=wrap;html=1;" vertex="1" parent="32">
                    <mxGeometry x="25" y="370" width="70" height="30" as="geometry"/>
                </mxCell>
                <mxCell id="172" value="code&lt;br&gt;!==&lt;br&gt;200" style="text;html=1;align=center;verticalAlign=middle;resizable=0;points=[];autosize=1;strokeColor=none;fillColor=none;fontSize=10;" vertex="1" parent="32">
                    <mxGeometry x="55" y="70" width="40" height="40" as="geometry"/>
                </mxCell>
                <mxCell id="48" value="" style="edgeStyle=none;html=1;entryX=0;entryY=0.5;entryDx=0;entryDy=0;fillColor=#e3c800;strokeColor=#B09500;" edge="1" parent="2" source="42" target="43">
                    <mxGeometry relative="1" as="geometry">
                        <mxPoint x="190" y="205" as="targetPoint"/>
                    </mxGeometry>
                </mxCell>
                <mxCell id="49" value="" style="edgeStyle=none;html=1;" edge="1" parent="2" source="43" target="33">
                    <mxGeometry relative="1" as="geometry"/>
                </mxCell>
                <mxCell id="79" value="观看端" style="swimlane;startSize=20;" vertex="1" parent="2">
                    <mxGeometry x="530" y="20" width="350" height="580" as="geometry"/>
                </mxCell>
                <mxCell id="101" value="" style="edgeStyle=none;html=1;" edge="1" parent="79" source="80" target="100">
                    <mxGeometry relative="1" as="geometry"/>
                </mxCell>
                <mxCell id="80" value="&lt;span style=&quot;font-size: 10px&quot;&gt;打开倒计时面板和iocn&lt;/span&gt;" style="rounded=0;whiteSpace=wrap;html=1;" vertex="1" parent="79">
                    <mxGeometry x="145" y="240" width="70" height="30" as="geometry"/>
                </mxCell>
                <mxCell id="87" value="" style="edgeStyle=none;html=1;" edge="1" parent="79" source="83" target="80">
                    <mxGeometry relative="1" as="geometry"/>
                </mxCell>
                <mxCell id="83" value="计时器是否可见" style="rhombus;whiteSpace=wrap;html=1;fontSize=10;" vertex="1" parent="79">
                    <mxGeometry x="140" y="165" width="80" height="40" as="geometry"/>
                </mxCell>
                <mxCell id="88" value="是" style="text;html=1;align=center;verticalAlign=middle;resizable=0;points=[];autosize=1;strokeColor=none;fillColor=none;" vertex="1" parent="79">
                    <mxGeometry x="180" y="205" width="30" height="20" as="geometry"/>
                </mxCell>
                <mxCell id="90" value="开始" style="rounded=1;whiteSpace=wrap;html=1;" vertex="1" parent="79">
                    <mxGeometry x="145" y="50" width="70" height="30" as="geometry"/>
                </mxCell>
                <mxCell id="103" value="" style="edgeStyle=none;html=1;" edge="1" parent="79" source="100" target="102">
                    <mxGeometry relative="1" as="geometry"/>
                </mxCell>
                <mxCell id="100" value="是否可超时" style="rhombus;whiteSpace=wrap;html=1;fontSize=10;" vertex="1" parent="79">
                    <mxGeometry x="140" y="300" width="80" height="40" as="geometry"/>
                </mxCell>
                <mxCell id="106" value="" style="edgeStyle=none;html=1;" edge="1" parent="79" source="102" target="105">
                    <mxGeometry relative="1" as="geometry"/>
                </mxCell>
                <mxCell id="102" value="&lt;span style=&quot;font-size: 10px&quot;&gt;关闭倒计时面板和icon&lt;/span&gt;" style="rounded=0;whiteSpace=wrap;html=1;" vertex="1" parent="79">
                    <mxGeometry x="145" y="370" width="70" height="30" as="geometry"/>
                </mxCell>
                <mxCell id="104" value="&lt;font style=&quot;font-size: 10px&quot;&gt;否&lt;/font&gt;" style="text;html=1;align=center;verticalAlign=middle;resizable=0;points=[];autosize=1;strokeColor=none;fillColor=none;" vertex="1" parent="79">
                    <mxGeometry x="180" y="340" width="30" height="20" as="geometry"/>
                </mxCell>
                <mxCell id="105" value="结束" style="rounded=1;whiteSpace=wrap;html=1;" vertex="1" parent="79">
                    <mxGeometry x="145" y="430" width="70" height="30" as="geometry"/>
                </mxCell>
                <mxCell id="109" value="&lt;font style=&quot;font-size: 10px&quot;&gt;计时归0&lt;/font&gt;" style="text;html=1;align=center;verticalAlign=middle;resizable=0;points=[];autosize=1;strokeColor=none;fillColor=none;" vertex="1" parent="79">
                    <mxGeometry x="130" y="340" width="50" height="20" as="geometry"/>
                </mxCell>
                <mxCell id="115" value="" style="edgeStyle=none;html=1;fontSize=10;entryX=1;entryY=0.5;entryDx=0;entryDy=0;" edge="1" parent="79" source="112" target="105">
                    <mxGeometry relative="1" as="geometry">
                        <mxPoint x="275" y="480" as="targetPoint"/>
                        <Array as="points">
                            <mxPoint x="275" y="445"/>
                        </Array>
                    </mxGeometry>
                </mxCell>
                <mxCell id="112" value="&lt;span style=&quot;font-size: 10px&quot;&gt;清除计时,保持面板&lt;/span&gt;" style="rounded=0;whiteSpace=wrap;html=1;" vertex="1" parent="79">
                    <mxGeometry x="240" y="370" width="70" height="30" as="geometry"/>
                </mxCell>
                <mxCell id="108" value="&lt;font style=&quot;font-size: 10px&quot;&gt;是&lt;/font&gt;" style="text;html=1;align=center;verticalAlign=middle;resizable=0;points=[];autosize=1;strokeColor=none;fillColor=none;" vertex="1" parent="79">
                    <mxGeometry x="215" y="300" width="30" height="20" as="geometry"/>
                </mxCell>
                <mxCell id="113" style="edgeStyle=none;html=1;exitX=1;exitY=0.5;exitDx=0;exitDy=0;fontSize=10;entryX=0.5;entryY=0;entryDx=0;entryDy=0;" edge="1" parent="79" source="100" target="112">
                    <mxGeometry relative="1" as="geometry">
                        <mxPoint x="290" y="319.8571428571429" as="targetPoint"/>
                        <Array as="points">
                            <mxPoint x="275" y="320"/>
                        </Array>
                    </mxGeometry>
                </mxCell>
                <mxCell id="116" value="&lt;span style=&quot;font-family: &amp;#34;helvetica&amp;#34;&quot;&gt;计时归-3599&lt;/span&gt;" style="edgeLabel;html=1;align=center;verticalAlign=middle;resizable=0;points=[];fontSize=10;" vertex="1" connectable="0" parent="113">
                    <mxGeometry x="0.385" y="1" relative="1" as="geometry">
                        <mxPoint as="offset"/>
                    </mxGeometry>
                </mxCell>
                <mxCell id="163" value="" style="edgeStyle=none;html=1;fontSize=10;entryX=0;entryY=0.5;entryDx=0;entryDy=0;" edge="1" parent="79" source="161" target="102">
                    <mxGeometry relative="1" as="geometry"/>
                </mxCell>
                <mxCell id="166" value="" style="edgeStyle=none;html=1;fontSize=10;" edge="1" parent="79" source="161" target="165">
                    <mxGeometry relative="1" as="geometry"/>
                </mxCell>
                <mxCell id="161" value="是否为重置&lt;br&gt;/关闭" style="rhombus;whiteSpace=wrap;html=1;fontSize=10;" vertex="1" parent="79">
                    <mxGeometry x="30" y="365" width="80" height="40" as="geometry"/>
                </mxCell>
                <mxCell id="168" value="" style="edgeStyle=none;html=1;fontSize=10;" edge="1" parent="79" source="165" target="100">
                    <mxGeometry relative="1" as="geometry"/>
                </mxCell>
                <mxCell id="165" value="&lt;span style=&quot;font-size: 10px&quot;&gt;暂停/继续倒计时&lt;/span&gt;" style="rounded=0;whiteSpace=wrap;html=1;" vertex="1" parent="79">
                    <mxGeometry x="35" y="305" width="70" height="30" as="geometry"/>
                </mxCell>
                <mxCell id="167" value="否" style="text;html=1;align=center;verticalAlign=middle;resizable=0;points=[];autosize=1;strokeColor=none;fillColor=none;fontSize=10;" vertex="1" parent="79">
                    <mxGeometry x="65" y="345" width="30" height="20" as="geometry"/>
                </mxCell>
                <mxCell id="170" value="&lt;font style=&quot;font-size: 10px&quot;&gt;提示失败&lt;/font&gt;" style="rounded=0;whiteSpace=wrap;html=1;" vertex="1" parent="79">
                    <mxGeometry x="240" y="95" width="70" height="30" as="geometry"/>
                </mxCell>
                <mxCell id="177" value="成功" style="text;html=1;align=center;verticalAlign=middle;resizable=0;points=[];autosize=1;strokeColor=none;fillColor=none;fontSize=10;" vertex="1" parent="79">
                    <mxGeometry x="130" y="140" width="40" height="20" as="geometry"/>
                </mxCell>
                <mxCell id="84" value="" style="edgeStyle=none;html=1;fillColor=#0050ef;strokeColor=#001DBC;" edge="1" parent="2" source="33" target="83">
                    <mxGeometry relative="1" as="geometry"/>
                </mxCell>
                <mxCell id="86" value="" style="edgeStyle=none;html=1;entryX=1;entryY=0.25;entryDx=0;entryDy=0;exitX=0.5;exitY=1;exitDx=0;exitDy=0;fillColor=#e51400;strokeColor=#B20000;" edge="1" parent="2" source="43" target="18">
                    <mxGeometry relative="1" as="geometry">
                        <Array as="points">
                            <mxPoint x="338" y="277"/>
                        </Array>
                    </mxGeometry>
                </mxCell>
                <mxCell id="89" value="" style="edgeStyle=none;html=1;entryX=1;entryY=0.5;entryDx=0;entryDy=0;fillColor=#0050ef;strokeColor=#001DBC;" edge="1" parent="2" source="33" target="20">
                    <mxGeometry relative="1" as="geometry">
                        <mxPoint x="465" y="300" as="targetPoint"/>
                        <Array as="points">
                            <mxPoint x="470" y="345"/>
                        </Array>
                    </mxGeometry>
                </mxCell>
                <mxCell id="121" value="" style="edgeStyle=none;html=1;fontSize=10;entryX=0;entryY=0.5;entryDx=0;entryDy=0;fillColor=#e3c800;strokeColor=#B09500;" edge="1" parent="2" source="117" target="120">
                    <mxGeometry relative="1" as="geometry">
                        <mxPoint x="190" y="405" as="targetPoint"/>
                    </mxGeometry>
                </mxCell>
                <mxCell id="122" value="" style="edgeStyle=none;html=1;fontSize=10;entryX=1;entryY=0.75;entryDx=0;entryDy=0;exitX=0.5;exitY=0;exitDx=0;exitDy=0;fillColor=#e51400;strokeColor=#B20000;" edge="1" parent="2" source="120" target="18">
                    <mxGeometry relative="1" as="geometry">
                        <Array as="points">
                            <mxPoint x="338" y="292"/>
                        </Array>
                    </mxGeometry>
                </mxCell>
                <mxCell id="160" value="" style="edgeStyle=none;html=1;fontSize=10;" edge="1" parent="2" source="120" target="159">
                    <mxGeometry relative="1" as="geometry"/>
                </mxCell>
                <mxCell id="162" value="" style="edgeStyle=none;html=1;fontSize=10;fillColor=#0050ef;strokeColor=#001DBC;" edge="1" parent="2" source="159" target="161">
                    <mxGeometry relative="1" as="geometry"/>
                </mxCell>
                <mxCell id="98" value="" style="edgeStyle=none;html=1;fillColor=#e3c800;strokeColor=#B09500;" edge="1" parent="2" source="90">
                    <mxGeometry relative="1" as="geometry">
                        <mxPoint x="340" y="110" as="targetPoint"/>
                        <Array as="points">
                            <mxPoint x="340" y="85"/>
                        </Array>
                    </mxGeometry>
                </mxCell>
                <mxCell id="99" value="" style="edgeStyle=none;html=1;entryX=0.5;entryY=0;entryDx=0;entryDy=0;fillColor=#008a00;strokeColor=#005700;exitX=0.5;exitY=1;exitDx=0;exitDy=0;" edge="1" parent="2" source="169" target="83">
                    <mxGeometry relative="1" as="geometry">
                        <mxPoint x="375" y="125" as="sourcePoint"/>
                        <Array as="points">
                            <mxPoint x="710" y="150"/>
                        </Array>
                    </mxGeometry>
                </mxCell>
                <mxCell id="171" value="" style="edgeStyle=none;html=1;fontSize=10;entryX=0;entryY=0.5;entryDx=0;entryDy=0;fillColor=#e51400;strokeColor=#B20000;" edge="1" parent="2" source="169" target="170">
                    <mxGeometry relative="1" as="geometry">
                        <mxPoint x="460" y="130" as="targetPoint"/>
                    </mxGeometry>
                </mxCell>
                <mxCell id="164" value="是" style="text;html=1;align=center;verticalAlign=middle;resizable=0;points=[];autosize=1;strokeColor=none;fillColor=none;fontSize=10;" vertex="1" parent="1">
                    <mxGeometry x="755" y="560" width="30" height="20" as="geometry"/>
                </mxCell>
            </root>
        </mxGraphModel>
    </diagram>
</mxfile>